<svg width="59" height="59" viewBox="0 0 59 59" fill="none" xmlns="http://www.w3.org/2000/svg">
<path fill-rule="evenodd" clip-rule="evenodd" d="M29.4444 6.33334C48.1111 8.11112 58.7778 20.5556 57.8889 57.8889H17C17 41.8889 34.7778 46.3333 31.2222 20.5556" fill="white"/>
<path d="M29.4444 6.33334C48.1111 8.11112 58.7778 20.5556 57.8889 57.8889H17C17 41.8889 34.7778 46.3333 31.2222 20.5556" stroke="black" stroke-width="1.5" stroke-linecap="round" stroke-linejoin="round"/>
<path fill-rule="evenodd" clip-rule="evenodd" d="M33 20.5556C33.6756 25.7289 23.1333 33.6578 18.7778 36.5556C13.4444 40.1111 13.7644 44.2711 9.88889 43.6667C8.03645 41.9956 12.3956 38.2622 9.88889 38.3333C8.11112 38.3333 10.2267 40.52 8.11112 41.8889C6.33334 41.8889 0.994671 43.6667 1 34.7778C1 31.2222 11.6667 13.4444 11.6667 13.4444C11.6667 13.4444 15.0267 10.0667 15.2222 7.22222C13.9244 5.45511 14.3333 3.66667 14.3333 1.88889C16.1111 0.111111 19.6667 6.33333 19.6667 6.33333H23.2222C23.2222 6.33333 24.6089 2.792 27.6667 1C29.4444 1 29.4444 6.33333 29.4444 6.33333" fill="white"/>
<path d="M33 20.5556C33.6756 25.7289 23.1333 33.6578 18.7778 36.5556C13.4444 40.1111 13.7644 44.2711 9.88889 43.6667C8.03645 41.9956 12.3956 38.2622 9.88889 38.3333C8.11112 38.3333 10.2267 40.52 8.11112 41.8889C6.33334 41.8889 0.994671 43.6667 1 34.7778C1 31.2222 11.6667 13.4444 11.6667 13.4444C11.6667 13.4444 15.0267 10.0667 15.2222 7.22222C13.9244 5.45511 14.3333 3.66667 14.3333 1.88889C16.1111 0.111111 19.6667 6.33333 19.6667 6.33333H23.2222C23.2222 6.33333 24.6089 2.792 27.6667 1C29.4444 1 29.4444 6.33333 29.4444 6.33333" stroke="black" stroke-width="1.5" stroke-linecap="round" stroke-linejoin="round"/>
<path fill-rule="evenodd" clip-rule="evenodd" d="M7.22224 33.8889C7.22224 34.1246 7.12859 34.3507 6.96189 34.5174C6.79519 34.6841 6.56909 34.7778 6.33335 34.7778C6.0976 34.7778 5.87151 34.6841 5.70481 34.5174C5.53811 34.3507 5.44446 34.1246 5.44446 33.8889C5.44446 33.6531 5.53811 33.427 5.70481 33.2603C5.87151 33.0936 6.0976 33 6.33335 33C6.56909 33 6.79519 33.0936 6.96189 33.2603C7.12859 33.427 7.22224 33.6531 7.22224 33.8889Z" fill="black" stroke="black" stroke-width="1.5" stroke-linecap="round" stroke-linejoin="round"/>
<path fill-rule="evenodd" clip-rule="evenodd" d="M16.8809 16.5556C16.5273 17.168 16.107 17.7086 15.7126 18.0583C15.3182 18.4081 14.982 18.5383 14.7778 18.4204C14.5736 18.3026 14.5183 17.9462 14.624 17.4298C14.7297 16.9133 14.9877 16.2791 15.3413 15.6667C15.695 15.0542 16.1152 14.5136 16.5096 14.1639C16.904 13.8142 17.2403 13.6839 17.4445 13.8018C17.6486 13.9196 17.7039 14.276 17.5983 14.7924C17.4926 15.3089 17.2345 15.9431 16.8809 16.5556Z" fill="black" stroke="black" stroke-width="1.5" stroke-linecap="round" stroke-linejoin="round"/>
</svg>
