<svg width="61" height="62" viewBox="0 0 61 62" fill="none" xmlns="http://www.w3.org/2000/svg">
<path d="M30.5329 11.0089V1" stroke="black" stroke-width="1.5" stroke-linecap="round"/>
<path d="M26.0884 4.55554H34.9773" stroke="black" stroke-width="1.5" stroke-linecap="round"/>
<path fill-rule="evenodd" clip-rule="evenodd" d="M30.5329 34.7778C30.5329 34.7778 38.5329 21.4444 35.8662 16.1111C35.8662 16.1111 34.0884 11.6667 30.5329 11.6667C26.9773 11.6667 25.1996 16.1111 25.1996 16.1111C22.5329 21.4444 30.5329 34.7778 30.5329 34.7778Z" fill="white" stroke="black" stroke-width="1.5"/>
<path fill-rule="evenodd" clip-rule="evenodd" d="M12.7551 56.1111C22.5329 62.3333 38.5329 62.3333 48.3107 56.1111V43.6667C48.3107 43.6667 64.3107 35.6667 58.9773 25C51.8662 13.4444 34.9773 18.7778 30.5329 32.1111V38.3333V32.1111C26.0884 18.7778 9.19955 13.4444 2.08844 25C-3.2449 35.6667 12.7551 43.6667 12.7551 43.6667V56.1111Z" fill="white" stroke="black" stroke-width="1.5" stroke-linecap="round" stroke-linejoin="round"/>
<path d="M12.7551 43.6667C22.5329 38.3334 38.5329 38.3334 48.3107 43.6667" stroke="black" stroke-width="1.5" stroke-linecap="round" stroke-linejoin="round"/>
<path d="M12.7551 49.8889C22.5329 44.5556 38.5329 44.5556 48.3107 49.8889" stroke="black" stroke-width="1.5" stroke-linecap="round" stroke-linejoin="round"/>
<path d="M12.7551 56.1111C22.5329 50.7778 38.5329 50.7778 48.3107 56.1111" stroke="black" stroke-width="1.5" stroke-linecap="round" stroke-linejoin="round"/>
</svg>
