<svg width="43" height="56" viewBox="0 0 43 56" fill="none" xmlns="http://www.w3.org/2000/svg">
<path d="M21.4444 1C17.5156 1 14.3333 4.18222 14.3333 8.11111C14.3333 9.69333 14.8489 11.1511 15.72 12.3422C12.2533 14.3333 9.88889 18.0489 9.88889 22.3333C9.88889 25.9422 11.56 29.16 14.1733 31.2756C8.84 33.16 1 41.1422 1 55.2222H41.8889C41.8889 41.1422 34.0489 33.16 28.7156 31.2756C31.3289 29.16 33 25.9422 33 22.3333C33 18.0489 30.6356 14.3333 27.1689 12.3422C28.04 11.1511 28.5556 9.69333 28.5556 8.11111C28.5556 4.18222 25.3733 1 21.4444 1Z" fill="white" stroke="black" stroke-width="1.5" stroke-linecap="round"/>
</svg>
