<svg width="68" height="62" viewBox="0 0 68 62" fill="none" xmlns="http://www.w3.org/2000/svg">
<path fill-rule="evenodd" clip-rule="evenodd" d="M8.11111 12.5556C8.11111 13.4985 7.73651 14.4029 7.06971 15.0697C6.40292 15.7365 5.49855 16.1111 4.55556 16.1111C3.61256 16.1111 2.70819 15.7365 2.0414 15.0697C1.3746 14.4029 1 13.4985 1 12.5556C1 11.6126 1.3746 10.7082 2.0414 10.0414C2.70819 9.3746 3.61256 9 4.55556 9C5.49855 9 6.40292 9.3746 7.06971 10.0414C7.73651 10.7082 8.11111 11.6126 8.11111 12.5556Z" fill="white" stroke="black" stroke-width="1.5" stroke-linecap="round" stroke-linejoin="round"/>
<path fill-rule="evenodd" clip-rule="evenodd" d="M37.4444 4.55556C37.4444 5.49855 37.0698 6.40292 36.403 7.06971C35.7362 7.73651 34.8319 8.11111 33.8889 8.11111C32.9459 8.11111 32.0415 7.73651 31.3747 7.06971C30.7079 6.40292 30.3333 5.49855 30.3333 4.55556C30.3333 3.61256 30.7079 2.70819 31.3747 2.0414C32.0415 1.3746 32.9459 1 33.8889 1C34.8319 1 35.7362 1.3746 36.403 2.0414C37.0698 2.70819 37.4444 3.61256 37.4444 4.55556Z" fill="white" stroke="black" stroke-width="1.5" stroke-linecap="round" stroke-linejoin="round"/>
<path fill-rule="evenodd" clip-rule="evenodd" d="M66.7778 12.5556C66.7778 13.4985 66.4032 14.4029 65.7364 15.0697C65.0696 15.7365 64.1652 16.1111 63.2222 16.1111C62.2792 16.1111 61.3749 15.7365 60.7081 15.0697C60.0413 14.4029 59.6667 13.4985 59.6667 12.5556C59.6667 11.6126 60.0413 10.7082 60.7081 10.0414C61.3749 9.3746 62.2792 9 63.2222 9C64.1652 9 65.0696 9.3746 65.7364 10.0414C66.4032 10.7082 66.7778 11.6126 66.7778 12.5556Z" fill="white" stroke="black" stroke-width="1.5" stroke-linecap="round" stroke-linejoin="round"/>
<path fill-rule="evenodd" clip-rule="evenodd" d="M22.3333 7.22221C22.3333 8.1652 21.9587 9.06957 21.2919 9.73637C20.6251 10.4032 19.7208 10.7778 18.7778 10.7778C17.8348 10.7778 16.9304 10.4032 16.2636 9.73637C15.5968 9.06957 15.2222 8.1652 15.2222 7.22221C15.2222 6.27922 15.5968 5.37485 16.2636 4.70806C16.9304 4.04126 17.8348 3.66666 18.7778 3.66666C19.7208 3.66666 20.6251 4.04126 21.2919 4.70806C21.9587 5.37485 22.3333 6.27922 22.3333 7.22221Z" fill="white" stroke="black" stroke-width="1.5" stroke-linecap="round" stroke-linejoin="round"/>
<path fill-rule="evenodd" clip-rule="evenodd" d="M52.5556 7.22221C52.5556 8.1652 52.181 9.06957 51.5142 9.73637C50.8474 10.4032 49.943 10.7778 49 10.7778C48.057 10.7778 47.1527 10.4032 46.4859 9.73637C45.8191 9.06957 45.4445 8.1652 45.4445 7.22221C45.4445 6.27922 45.8191 5.37485 46.4859 4.70806C47.1527 4.04126 48.057 3.66666 49 3.66666C49.943 3.66666 50.8474 4.04126 51.5142 4.70806C52.181 5.37485 52.5556 6.27922 52.5556 7.22221Z" fill="white" stroke="black" stroke-width="1.5" stroke-linecap="round" stroke-linejoin="round"/>
<path fill-rule="evenodd" clip-rule="evenodd" d="M9.88887 37.4444C25 34.7778 42.7778 34.7778 57.8889 37.4444L61.4444 16.1111L49 35.6667V10.7778L39.2222 34.7778L33.8889 8.11111L28.5555 34.7778L18.7778 10.7778V35.6667L6.33331 16.1111L9.88887 37.4444Z" fill="white" stroke="black" stroke-width="1.5" stroke-linejoin="round"/>
<path fill-rule="evenodd" clip-rule="evenodd" d="M9.88892 37.4445C9.88892 41 12.5556 41 14.3334 44.5556C16.1111 47.2222 16.1111 46.3333 15.2222 50.7778C12.5556 52.5556 13.4445 55.2222 13.4445 55.2222C10.7778 57.8889 13.4445 59.6667 13.4445 59.6667C25 61.4445 42.7778 61.4445 54.3334 59.6667C54.3334 59.6667 57 57.8889 54.3334 55.2222C54.3334 55.2222 55.2222 52.5556 52.5556 50.7778C51.6667 46.3333 51.6667 47.2222 53.4445 44.5556C55.2222 41 57.8889 41 57.8889 37.4445C42.7778 34.7778 25 34.7778 9.88892 37.4445Z" fill="white" stroke="black" stroke-width="1.5" stroke-linejoin="round"/>
<path d="M14.3333 44.5556C20.5555 42.7778 47.2222 42.7778 53.4444 44.5556" stroke="black" stroke-width="1.5" stroke-linecap="round" stroke-linejoin="round"/>
<path d="M15.2222 50.7778C25.8889 49 41.8889 49 52.5556 50.7778" stroke="black" stroke-width="1.5" stroke-linecap="round" stroke-linejoin="round"/>
</svg>
