<svg width="61" height="61" viewBox="0 0 61 61" fill="none" xmlns="http://www.w3.org/2000/svg">
<path fill-rule="evenodd" clip-rule="evenodd" d="M6.33333 55.2222C12.36 53.4978 24.3067 55.9867 30.3333 51.6667C36.36 55.9867 48.3067 53.4978 54.3333 55.2222C54.3333 55.2222 57.2667 56.1822 59.6667 58.7778C58.4578 60.5022 56.7333 60.5378 54.3333 59.6667C48.3067 57.9422 36.36 60.4844 30.3333 57.8889C24.3067 60.4844 12.36 57.9422 6.33333 59.6667C3.93333 60.5378 2.20889 60.5022 1 58.7778C3.4 56.1822 6.33333 55.2222 6.33333 55.2222Z" fill="white" stroke="black" stroke-width="1.5" stroke-linejoin="round"/>
<path fill-rule="evenodd" clip-rule="evenodd" d="M17 48.1111C21.4444 52.5556 39.2222 52.5556 43.6667 48.1111C44.5555 45.4444 43.6667 44.5556 43.6667 44.5556C43.6667 40.1111 39.2222 37.4444 39.2222 37.4444C49 34.7778 49.8889 17 30.3333 9.88889C10.7778 17 11.6667 34.7778 21.4444 37.4444C21.4444 37.4444 17 40.1111 17 44.5556C17 44.5556 16.1111 45.4444 17 48.1111Z" fill="white" stroke="black" stroke-width="1.5" stroke-linejoin="round"/>
<path fill-rule="evenodd" clip-rule="evenodd" d="M34.7778 5.44444C34.7778 6.62318 34.3095 7.75365 33.476 8.58714C32.6425 9.42064 31.5121 9.88889 30.3333 9.88889C29.1546 9.88889 28.0241 9.42064 27.1906 8.58714C26.3571 7.75365 25.8889 6.62318 25.8889 5.44444C25.8889 4.2657 26.3571 3.13524 27.1906 2.30175C28.0241 1.46825 29.1546 1 30.3333 1C31.5121 1 32.6425 1.46825 33.476 2.30175C34.3095 3.13524 34.7778 4.2657 34.7778 5.44444Z" fill="white" stroke="black" stroke-width="1.5" stroke-linejoin="round"/>
<path d="M25.8889 23.2222H34.7778M21.4444 37.4444H39.2222H21.4444ZM17 44.5555H43.6667H17ZM30.3333 18.7778V27.6667V18.7778Z" stroke="black" stroke-width="1.5" stroke-linecap="round"/>
</svg>
